# xmcd
#
# Track frame offsets: 
#        150
#        13300
#        22284
#        34788
#        44796
#        53629
#        66235
#        77730
#        87705
#        98969
#        108824
#        119995
#        133164
#        142885
#        152710
#        162219
#        173469
#        183150
#        192160
#        203633
#        221659
#        231231
#        247548
#        258636
#        271786
#        282430
#        294332
#        306468
#        314643
#        325595
#
# Disc length: 4488 seconds
#
# Revision: 0
# Processed by: cddbd v1.5.2PL0 Copyright (c) Steve Scherf et al.
# Submitted via: ExactAudioCopy v1.1
#
DISCID=be11861e
DTITLE=Various Artist - Hillbillies In Hell: Country Music's Tormente
DTITLE=d Testament (1952-1974) [2017 Omni Recording Corp]
DYEAR=2017
DGENRE=Country
TTITLE0=Harry Snyder - The Needle
TTITLE1=Wendell Austin (and the Country Swings) - LSD
TTITLE2=Johnny Price - Marijuana, The Devil Flower
TTITLE3=Red River Dave - California Hippie Murders!
TTITLE4=Jimmy Minor - Satan's Chauffeur
TTITLE5=Benny Joy - Dark Angel
TTITLE6=Billy Barton - The Devil, My Conscience and I
TTITLE7=Jack Cook - My Evil Mind
TTITLE8=Margie Singleton - Jesus Is My Pusher
TTITLE9=Cowboy Copas - Don't Shake Hands With The Devil
TTITLE10=Louie Innis - Suicide
TTITLE11=Don Bailey - Fourteen Stories Down
TTITLE12=Jesse Bruce - Demon of Jealousy
TTITLE13=Johnny Tyler - God's Gonna Turn Us To Dust
TTITLE14=Art Killmer and the Up-Town Four - The Devil's Twist
TTITLE15=Buck Ritchey - The Slave
TTITLE16=Wayne, Pat and Keith - I'm Tired of You Satan
TTITLE17=The Sunshine Boys - We Need A Whole Lot More of Jesus (And a 
TTITLE17=Lot Less Rock And Roll)
TTITLE18=Bill Anderson - Three A.M.
TTITLE19=Jimmy Newman - The Devil Was Laughing At Me
TTITLE20=Buddy Knox - I Think I'm Gonna Kill Myself
TTITLE21=Eddie Noack - Psycho
TTITLE22=Buddy Long - It's Nothin' To Me
TTITLE23=Jack Leonard - A Visit From The Devil
TTITLE24=Johnny David - Race With The Devil
TTITLE25=Billy Strange - Hell Train
TTITLE26=Johnny 'Pee Wee' Blaine - Lonely Street To Hell
TTITLE27=David Beatty and the Harmonettes - I Just Got Off The Devil's
TTITLE27=Train
TTITLE28=Len Barrow - Hades Highway
TTITLE29=Dick Flood - Hellbound Train
EXTD=
EXTT0=
EXTT1=
EXTT2=
EXTT3=
EXTT4=
EXTT5=
EXTT6=
EXTT7=
EXTT8=
EXTT9=
EXTT10=
EXTT11=
EXTT12=
EXTT13=
EXTT14=
EXTT15=
EXTT16=
EXTT17=
EXTT18=
EXTT19=
EXTT20=
EXTT21=
EXTT22=
EXTT23=
EXTT24=
EXTT25=
EXTT26=
EXTT27=
EXTT28=
EXTT29=
PLAYORDER=
